grf
version=1
nRows=12
nColumns=37
inDegrees=no
endheader
time	ground_force_1_vx	ground_force_1_vy	ground_force_1_vz	ground_force_1_px	ground_force_1_py	ground_force_1_pz	ground_moment_1_mx	ground_moment_1_my	ground_moment_1_mz	ground_force_2_vx	ground_force_2_vy	ground_force_2_vz	ground_force_2_px	ground_force_2_py	ground_force_2_pz	ground_moment_2_mx	ground_moment_2_my	ground_moment_2_mz	ground_force_3_vx	ground_force_3_vy	ground_force_3_vz	ground_force_3_px	ground_force_3_py	ground_force_3_pz	ground_moment_3_mx	ground_moment_3_my	ground_moment_3_mz	ground_force_4_vx	ground_force_4_vy	ground_force_4_vz	ground_force_4_px	ground_force_4_py	ground_force_4_pz	ground_moment_4_mx	ground_moment_4_my	ground_moment_4_mz
      0.00000000	      0.00000000	     -0.00000000	      0.00000000	      0.00000000	      0.00000000	      0.00000000	      0.00000000	      0.00000000	      0.00000000	     -6.32636213	     23.62460709	   -345.72314453	   -316.25433555	  -1030.38939129	      0.00000000	      0.00000000	      0.00000000	   1739.29209958	      9.93560575	    -24.72879497	   -643.13226318	   -378.58471097	   -792.71254639	      0.00000000	      0.00000000	     -0.00000000	  -1577.24061316	      0.00000000	     -0.00000000	      0.00000000	      0.00000000	      0.00000000	      0.00000000	      0.00000000	      0.00000000	      0.00000000
      0.01000000	      0.00000000	     -0.00000000	      0.00000000	      0.00000000	      0.00000000	      0.00000000	      0.00000000	      0.00000000	      0.00000000	     -5.88256693	     24.15699959	   -347.55014038	   -316.09440100	  -1029.84436077	      0.00000000	      0.00000000	      0.00000000	   1828.49037650	     10.46220088	    -24.56330772	   -641.05908203	   -379.05978291	   -792.67674946	      0.00000000	      0.00000000	     -0.00000000	  -1493.98165222	      0.00000000	     -0.00000000	      0.00000000	      0.00000000	      0.00000000	      0.00000000	      0.00000000	      0.00000000	      0.00000000
      0.02000000	      0.00000000	     -0.00000000	      0.00000000	      0.00000000	      0.00000000	      0.00000000	      0.00000000	      0.00000000	      0.00000000	     -5.79589462	     24.15155220	   -350.64147949	   -316.60741491	  -1029.80803285	      0.00000000	      0.00000000	     -0.00000000	   1886.82842200	     10.64374995	    -24.55650041	   -637.59942627	   -378.92844325	   -794.40907222	      0.00000000	      0.00000000	     -0.00000000	  -1598.54823674	      0.00000000	     -0.00000000	      0.00000000	      0.00000000	      0.00000000	      0.00000000	      0.00000000	      0.00000000	      0.00000000
      0.03000000	      0.00000000	     -0.00000000	      0.00000000	      0.00000000	      0.00000000	      0.00000000	      0.00000000	      0.00000000	      0.00000000	     -5.26922607	     24.66301918	   -354.53518677	   -316.01325321	  -1030.72715706	      0.00000000	     -0.00000000	      0.00000000	   2002.83294924	     10.47945955	    -24.20508858	   -638.28173828	   -378.57950477	   -793.09887387	      0.00000000	     -0.00000000	     -0.00000000	  -1578.89550431	      0.00000000	     -0.00000000	      0.00000000	      0.00000000	      0.00000000	      0.00000000	      0.00000000	      0.00000000	      0.00000000
      0.04000000	      0.00000000	     -0.00000000	      0.00000000	      0.00000000	      0.00000000	      0.00000000	      0.00000000	      0.00000000	      0.00000000	     -5.26342010	     23.90812874	   -356.01736450	   -315.63470663	  -1027.87757176	      0.00000000	      0.00000000	      0.00000000	   1770.15733760	     10.56014232	    -24.02527139	   -636.54547119	   -377.88061114	   -792.56578463	      0.00000000	      0.00000000	     -0.00000000	  -1601.84450147	      0.00000000	     -0.00000000	      0.00000000	      0.00000000	      0.00000000	      0.00000000	      0.00000000	      0.00000000	      0.00000000
      0.05000000	      0.00000000	     -0.00000000	      0.00000000	      0.00000000	      0.00000000	      0.00000000	      0.00000000	      0.00000000	      0.00000000	     -5.34946680	     24.34524345	   -360.23101807	   -316.52658672	  -1028.03427078	      0.00000000	      0.00000000	      0.00000000	   1802.66104975	     10.29810982	    -23.94280524	   -634.43859863	   -377.87809059	   -792.55434533	      0.00000000	      0.00000000	     -0.00000000	  -1652.08984066	      0.00000000	     -0.00000000	      0.00000000	      0.00000000	      0.00000000	      0.00000000	      0.00000000	      0.00000000	      0.00000000
      0.06000000	      0.00000000	     -0.00000000	      0.00000000	      0.00000000	      0.00000000	      0.00000000	      0.00000000	      0.00000000	      0.00000000	     -4.99578857	     24.07178116	   -364.49472046	   -314.86566537	  -1028.31892872	      0.00000000	     -0.00000000	      0.00000000	   1952.88330441	     10.46175178	    -23.67021271	   -631.63934326	   -376.84922115	   -792.67316854	      0.00000000	      0.00000000	     -0.00000000	  -1635.91993899	      0.00000000	     -0.00000000	      0.00000000	      0.00000000	      0.00000000	      0.00000000	      0.00000000	      0.00000000	      0.00000000
      0.07000000	      0.00000000	     -0.00000000	      0.00000000	      0.00000000	      0.00000000	      0.00000000	      0.00000000	      0.00000000	      0.00000000	     -4.99238491	     24.86398125	   -369.76593018	   -315.54276395	  -1030.06878378	      0.00000000	      0.00000000	      0.00000000	   1993.05044744	      9.93345244	    -23.74781505	   -626.42041016	   -376.97499866	   -793.73490198	      0.00000000	      0.00000000	      0.00000000	  -1738.91252658	      0.00000000	     -0.00000000	      0.00000000	      0.00000000	      0.00000000	      0.00000000	      0.00000000	      0.00000000	      0.00000000
      0.08000000	      0.00000000	     -0.00000000	      0.00000000	      0.00000000	      0.00000000	      0.00000000	      0.00000000	      0.00000000	      0.00000000	     -5.44537020	     25.13477325	   -370.92276001	   -315.26334610	  -1027.90786470	      0.00000000	      0.00000000	      0.00000000	   1754.95633369	      9.76273999	    -23.48449792	   -622.56427002	   -376.42428065	   -793.21769535	      0.00000000	      0.00000000	     -0.00000000	  -1612.24680001	      0.00000000	     -0.00000000	      0.00000000	      0.00000000	      0.00000000	      0.00000000	      0.00000000	      0.00000000	      0.00000000
      0.09000000	      0.00000000	     -0.00000000	      0.00000000	      0.00000000	      0.00000000	      0.00000000	      0.00000000	      0.00000000	      0.00000000	     -5.89522219	     25.31303406	   -377.52035522	   -314.12228151	  -1029.97182179	      0.00000000	      0.00000000	      0.00000000	   2105.76444566	      9.68153658	    -22.87051286	   -618.34753418	   -375.83517767	   -793.23784833	      0.00000000	      0.00000000	     -0.00000000	  -1616.16085102	      0.00000000	     -0.00000000	      0.00000000	      0.00000000	      0.00000000	      0.00000000	      0.00000000	      0.00000000	      0.00000000
      0.10000000	      0.00000000	     -0.00000000	      0.00000000	      0.00000000	      0.00000000	      0.00000000	      0.00000000	      0.00000000	      0.00000000	     -5.81005144	     25.85160255	   -382.46389771	   -314.06314312	  -1029.51963662	      0.00000000	     -0.00000000	      0.00000000	   1888.45755287	      9.93814276	    -21.99715320	   -612.81103516	   -375.56103427	   -794.19204510	      0.00000000	     -0.00000000	     -0.00000000	  -1611.43237672	      0.00000000	     -0.00000000	      0.00000000	      0.00000000	      0.00000000	      0.00000000	      0.00000000	      0.00000000	      0.00000000
      0.11000000	      0.00000000	     -0.00000000	      0.00000000	      0.00000000	      0.00000000	      0.00000000	      0.00000000	      0.00000000	      0.00000000	     -5.91522455	     25.94474792	   -388.08294678	   -313.11788544	  -1031.65823356	      0.00000000	      0.00000000	      0.00000000	   2049.10171973	     10.01901436	    -21.80489818	   -608.28479004	   -375.35612246	   -793.81615329	      0.00000000	      0.00000000	     -0.00000000	  -1701.88428903	      0.00000000	     -0.00000000	      0.00000000	      0.00000000	      0.00000000	      0.00000000	      0.00000000	      0.00000000	      0.00000000
